<mxfile host="app.diagrams.net" modified="2024-05-30T07:43:25.355Z" agent="Mozilla/5.0 (Windows NT 10.0; Win64; x64) AppleWebKit/537.36 (KHTML, like Gecko) Chrome/125.0.0.0 Safari/537.36" etag="BZbM1wCMRhjIADUsqG5Q" version="24.4.9" type="github">
  <diagram name="Pagina-1" id="THTmOEnDuf4OOfOf2mZq">
    <mxGraphModel dx="2596" dy="1941" grid="1" gridSize="10" guides="1" tooltips="1" connect="1" arrows="1" fold="1" page="1" pageScale="1" pageWidth="827" pageHeight="1169" math="0" shadow="0">
      <root>
        <mxCell id="0" />
        <mxCell id="1" parent="0" />
        <mxCell id="hMu0bNvZ6zIXJzxg3Q64-6" style="edgeStyle=orthogonalEdgeStyle;rounded=0;orthogonalLoop=1;jettySize=auto;html=1;exitX=0.5;exitY=1;exitDx=0;exitDy=0;" edge="1" parent="1" source="IIubhp3aX0ed0kJfjFSU-1" target="hMu0bNvZ6zIXJzxg3Q64-1">
          <mxGeometry relative="1" as="geometry" />
        </mxCell>
        <mxCell id="IIubhp3aX0ed0kJfjFSU-1" value="start programma" style="ellipse;whiteSpace=wrap;html=1;" parent="1" vertex="1">
          <mxGeometry x="296" y="-210" width="166" height="80" as="geometry" />
        </mxCell>
        <mxCell id="IIubhp3aX0ed0kJfjFSU-5" value="" style="edgeStyle=orthogonalEdgeStyle;rounded=0;orthogonalLoop=1;jettySize=auto;html=1;" parent="1" source="IIubhp3aX0ed0kJfjFSU-2" target="IIubhp3aX0ed0kJfjFSU-4" edge="1">
          <mxGeometry relative="1" as="geometry" />
        </mxCell>
        <mxCell id="IIubhp3aX0ed0kJfjFSU-2" value="hoeveel_bolletjes wilt u = int(input())" style="shape=parallelogram;perimeter=parallelogramPerimeter;whiteSpace=wrap;html=1;fixedSize=1;" parent="1" vertex="1">
          <mxGeometry x="292" y="210" width="170" height="80" as="geometry" />
        </mxCell>
        <mxCell id="IIubhp3aX0ed0kJfjFSU-6" style="edgeStyle=orthogonalEdgeStyle;rounded=0;orthogonalLoop=1;jettySize=auto;html=1;exitX=1;exitY=0.5;exitDx=0;exitDy=0;" parent="1" source="IIubhp3aX0ed0kJfjFSU-4" edge="1">
          <mxGeometry relative="1" as="geometry">
            <mxPoint x="560" y="360" as="targetPoint" />
          </mxGeometry>
        </mxCell>
        <mxCell id="IIubhp3aX0ed0kJfjFSU-13" value="else" style="edgeLabel;html=1;align=center;verticalAlign=middle;resizable=0;points=[];" parent="IIubhp3aX0ed0kJfjFSU-6" vertex="1" connectable="0">
          <mxGeometry x="0.1361" y="2" relative="1" as="geometry">
            <mxPoint as="offset" />
          </mxGeometry>
        </mxCell>
        <mxCell id="IIubhp3aX0ed0kJfjFSU-7" style="edgeStyle=orthogonalEdgeStyle;rounded=0;orthogonalLoop=1;jettySize=auto;html=1;exitX=0;exitY=0.5;exitDx=0;exitDy=0;" parent="1" source="IIubhp3aX0ed0kJfjFSU-4" edge="1">
          <mxGeometry relative="1" as="geometry">
            <mxPoint x="200" y="360" as="targetPoint" />
          </mxGeometry>
        </mxCell>
        <mxCell id="IIubhp3aX0ed0kJfjFSU-10" value="&amp;gt;8" style="edgeLabel;html=1;align=center;verticalAlign=middle;resizable=0;points=[];" parent="IIubhp3aX0ed0kJfjFSU-7" vertex="1" connectable="0">
          <mxGeometry x="0.0184" y="-2" relative="1" as="geometry">
            <mxPoint as="offset" />
          </mxGeometry>
        </mxCell>
        <mxCell id="IIubhp3aX0ed0kJfjFSU-21" style="edgeStyle=orthogonalEdgeStyle;rounded=0;orthogonalLoop=1;jettySize=auto;html=1;exitX=1;exitY=1;exitDx=0;exitDy=0;entryX=1;entryY=0.5;entryDx=0;entryDy=0;" parent="1" source="IIubhp3aX0ed0kJfjFSU-4" target="IIubhp3aX0ed0kJfjFSU-16" edge="1">
          <mxGeometry relative="1" as="geometry">
            <mxPoint x="480" y="640" as="targetPoint" />
            <Array as="points">
              <mxPoint x="480" y="380" />
              <mxPoint x="480" y="640" />
            </Array>
          </mxGeometry>
        </mxCell>
        <mxCell id="IIubhp3aX0ed0kJfjFSU-22" value="&amp;gt;=4 and &amp;lt;=8" style="edgeLabel;html=1;align=center;verticalAlign=middle;resizable=0;points=[];" parent="IIubhp3aX0ed0kJfjFSU-21" vertex="1" connectable="0">
          <mxGeometry x="0.2066" y="-4" relative="1" as="geometry">
            <mxPoint x="4" as="offset" />
          </mxGeometry>
        </mxCell>
        <mxCell id="IIubhp3aX0ed0kJfjFSU-36" style="edgeStyle=orthogonalEdgeStyle;rounded=0;orthogonalLoop=1;jettySize=auto;html=1;exitX=0;exitY=1;exitDx=0;exitDy=0;" parent="1" source="IIubhp3aX0ed0kJfjFSU-4" edge="1">
          <mxGeometry relative="1" as="geometry">
            <mxPoint x="260" y="450" as="targetPoint" />
          </mxGeometry>
        </mxCell>
        <mxCell id="IIubhp3aX0ed0kJfjFSU-45" value="&amp;gt;=1 and &amp;lt;=3" style="edgeLabel;html=1;align=center;verticalAlign=middle;resizable=0;points=[];" parent="IIubhp3aX0ed0kJfjFSU-36" vertex="1" connectable="0">
          <mxGeometry x="0.4015" relative="1" as="geometry">
            <mxPoint as="offset" />
          </mxGeometry>
        </mxCell>
        <mxCell id="IIubhp3aX0ed0kJfjFSU-4" value="if hoeveel bolletjes" style="rhombus;whiteSpace=wrap;html=1;" parent="1" vertex="1">
          <mxGeometry x="337" y="320" width="80" height="80" as="geometry" />
        </mxCell>
        <mxCell id="IIubhp3aX0ed0kJfjFSU-58" style="edgeStyle=orthogonalEdgeStyle;rounded=0;orthogonalLoop=1;jettySize=auto;html=1;exitX=0.5;exitY=0;exitDx=0;exitDy=0;entryX=0;entryY=0.5;entryDx=0;entryDy=0;" parent="1" source="IIubhp3aX0ed0kJfjFSU-12" target="IIubhp3aX0ed0kJfjFSU-2" edge="1">
          <mxGeometry relative="1" as="geometry">
            <Array as="points">
              <mxPoint x="140" y="240" />
            </Array>
          </mxGeometry>
        </mxCell>
        <mxCell id="IIubhp3aX0ed0kJfjFSU-12" value="print(&#39;Sorry zulke grote bakken hebben we niet&#39;)" style="rounded=0;whiteSpace=wrap;html=1;strokeColor=#000000;" parent="1" vertex="1">
          <mxGeometry x="80" y="330" width="120" height="60" as="geometry" />
        </mxCell>
        <mxCell id="IIubhp3aX0ed0kJfjFSU-52" style="edgeStyle=orthogonalEdgeStyle;rounded=0;orthogonalLoop=1;jettySize=auto;html=1;exitX=0.5;exitY=0;exitDx=0;exitDy=0;entryX=1;entryY=0.5;entryDx=0;entryDy=0;" parent="1" source="IIubhp3aX0ed0kJfjFSU-14" target="IIubhp3aX0ed0kJfjFSU-2" edge="1">
          <mxGeometry relative="1" as="geometry">
            <Array as="points">
              <mxPoint x="620" y="240" />
            </Array>
          </mxGeometry>
        </mxCell>
        <mxCell id="IIubhp3aX0ed0kJfjFSU-14" value="&#39;Sorry dat is geen optie die we aanbieden&#39;" style="rounded=0;whiteSpace=wrap;html=1;strokeColor=#000000;" parent="1" vertex="1">
          <mxGeometry x="560" y="330" width="120" height="60" as="geometry" />
        </mxCell>
        <mxCell id="IIubhp3aX0ed0kJfjFSU-24" style="edgeStyle=orthogonalEdgeStyle;rounded=0;orthogonalLoop=1;jettySize=auto;html=1;entryX=0.5;entryY=0;entryDx=0;entryDy=0;" parent="1" source="IIubhp3aX0ed0kJfjFSU-16" target="IIubhp3aX0ed0kJfjFSU-25" edge="1">
          <mxGeometry relative="1" as="geometry">
            <mxPoint x="377" y="680" as="targetPoint" />
          </mxGeometry>
        </mxCell>
        <mxCell id="IIubhp3aX0ed0kJfjFSU-16" value="&lt;div&gt;welke smaak wilt u = input()&lt;/div&gt;" style="shape=parallelogram;perimeter=parallelogramPerimeter;whiteSpace=wrap;html=1;fixedSize=1;strokeColor=#000000;" parent="1" vertex="1">
          <mxGeometry x="277" y="600" width="200" height="80" as="geometry" />
        </mxCell>
        <mxCell id="IIubhp3aX0ed0kJfjFSU-26" style="edgeStyle=orthogonalEdgeStyle;rounded=0;orthogonalLoop=1;jettySize=auto;html=1;exitX=1;exitY=0.5;exitDx=0;exitDy=0;entryX=1;entryY=0.5;entryDx=0;entryDy=0;" parent="1" source="IIubhp3aX0ed0kJfjFSU-25" target="IIubhp3aX0ed0kJfjFSU-46" edge="1">
          <mxGeometry relative="1" as="geometry">
            <mxPoint x="480" y="920" as="targetPoint" />
            <Array as="points">
              <mxPoint x="500" y="800" />
              <mxPoint x="500" y="950" />
            </Array>
          </mxGeometry>
        </mxCell>
        <mxCell id="IIubhp3aX0ed0kJfjFSU-31" value="aardbij" style="edgeLabel;html=1;align=center;verticalAlign=middle;resizable=0;points=[];" parent="IIubhp3aX0ed0kJfjFSU-26" vertex="1" connectable="0">
          <mxGeometry x="0.2727" y="1" relative="1" as="geometry">
            <mxPoint as="offset" />
          </mxGeometry>
        </mxCell>
        <mxCell id="IIubhp3aX0ed0kJfjFSU-28" style="edgeStyle=orthogonalEdgeStyle;rounded=0;orthogonalLoop=1;jettySize=auto;html=1;exitX=0;exitY=0.5;exitDx=0;exitDy=0;entryX=0;entryY=0.5;entryDx=0;entryDy=0;" parent="1" source="IIubhp3aX0ed0kJfjFSU-25" target="IIubhp3aX0ed0kJfjFSU-46" edge="1">
          <mxGeometry relative="1" as="geometry">
            <mxPoint x="280" y="920" as="targetPoint" />
            <Array as="points">
              <mxPoint x="260" y="800" />
              <mxPoint x="260" y="950" />
            </Array>
          </mxGeometry>
        </mxCell>
        <mxCell id="IIubhp3aX0ed0kJfjFSU-34" value="vanille" style="edgeLabel;html=1;align=center;verticalAlign=middle;resizable=0;points=[];" parent="IIubhp3aX0ed0kJfjFSU-28" vertex="1" connectable="0">
          <mxGeometry x="0.3423" y="2" relative="1" as="geometry">
            <mxPoint as="offset" />
          </mxGeometry>
        </mxCell>
        <mxCell id="IIubhp3aX0ed0kJfjFSU-29" style="edgeStyle=orthogonalEdgeStyle;rounded=0;orthogonalLoop=1;jettySize=auto;html=1;exitX=1;exitY=1;exitDx=0;exitDy=0;" parent="1" source="IIubhp3aX0ed0kJfjFSU-25" edge="1">
          <mxGeometry relative="1" as="geometry">
            <mxPoint x="397" y="920" as="targetPoint" />
          </mxGeometry>
        </mxCell>
        <mxCell id="IIubhp3aX0ed0kJfjFSU-32" value="munt" style="edgeLabel;html=1;align=center;verticalAlign=middle;resizable=0;points=[];" parent="IIubhp3aX0ed0kJfjFSU-29" vertex="1" connectable="0">
          <mxGeometry x="-0.2329" relative="1" as="geometry">
            <mxPoint y="11" as="offset" />
          </mxGeometry>
        </mxCell>
        <mxCell id="IIubhp3aX0ed0kJfjFSU-30" style="edgeStyle=orthogonalEdgeStyle;rounded=0;orthogonalLoop=1;jettySize=auto;html=1;exitX=0;exitY=1;exitDx=0;exitDy=0;" parent="1" source="IIubhp3aX0ed0kJfjFSU-25" edge="1">
          <mxGeometry relative="1" as="geometry">
            <mxPoint x="357" y="920" as="targetPoint" />
          </mxGeometry>
        </mxCell>
        <mxCell id="IIubhp3aX0ed0kJfjFSU-33" value="chocola" style="edgeLabel;html=1;align=center;verticalAlign=middle;resizable=0;points=[];" parent="IIubhp3aX0ed0kJfjFSU-30" vertex="1" connectable="0">
          <mxGeometry x="-0.1335" y="-2" relative="1" as="geometry">
            <mxPoint y="7" as="offset" />
          </mxGeometry>
        </mxCell>
        <mxCell id="IIubhp3aX0ed0kJfjFSU-48" style="edgeStyle=orthogonalEdgeStyle;rounded=0;orthogonalLoop=1;jettySize=auto;html=1;exitX=1;exitY=0;exitDx=0;exitDy=0;entryX=0;entryY=0.5;entryDx=0;entryDy=0;" parent="1" source="IIubhp3aX0ed0kJfjFSU-25" target="IIubhp3aX0ed0kJfjFSU-50" edge="1">
          <mxGeometry relative="1" as="geometry">
            <mxPoint x="500" y="779.7777777777778" as="targetPoint" />
          </mxGeometry>
        </mxCell>
        <mxCell id="IIubhp3aX0ed0kJfjFSU-49" value="else" style="edgeLabel;html=1;align=center;verticalAlign=middle;resizable=0;points=[];" parent="IIubhp3aX0ed0kJfjFSU-48" vertex="1" connectable="0">
          <mxGeometry x="-0.0665" y="1" relative="1" as="geometry">
            <mxPoint x="8" as="offset" />
          </mxGeometry>
        </mxCell>
        <mxCell id="IIubhp3aX0ed0kJfjFSU-25" value="if smaken" style="rhombus;whiteSpace=wrap;html=1;" parent="1" vertex="1">
          <mxGeometry x="337" y="760" width="80" height="80" as="geometry" />
        </mxCell>
        <mxCell id="IIubhp3aX0ed0kJfjFSU-40" style="edgeStyle=orthogonalEdgeStyle;rounded=0;orthogonalLoop=1;jettySize=auto;html=1;exitX=0;exitY=0.5;exitDx=0;exitDy=0;entryX=0.5;entryY=0;entryDx=0;entryDy=0;" parent="1" source="IIubhp3aX0ed0kJfjFSU-38" target="IIubhp3aX0ed0kJfjFSU-39" edge="1">
          <mxGeometry relative="1" as="geometry" />
        </mxCell>
        <mxCell id="IIubhp3aX0ed0kJfjFSU-38" value="bakje_of_hoorntje&lt;div&gt;= input()&lt;/div&gt;" style="shape=parallelogram;perimeter=parallelogramPerimeter;whiteSpace=wrap;html=1;fixedSize=1;" parent="1" vertex="1">
          <mxGeometry x="190" y="450" width="130" height="60" as="geometry" />
        </mxCell>
        <mxCell id="IIubhp3aX0ed0kJfjFSU-41" style="edgeStyle=orthogonalEdgeStyle;rounded=0;orthogonalLoop=1;jettySize=auto;html=1;exitX=1;exitY=0.5;exitDx=0;exitDy=0;entryX=0.5;entryY=0;entryDx=0;entryDy=0;" parent="1" source="IIubhp3aX0ed0kJfjFSU-39" target="IIubhp3aX0ed0kJfjFSU-16" edge="1">
          <mxGeometry relative="1" as="geometry" />
        </mxCell>
        <mxCell id="IIubhp3aX0ed0kJfjFSU-44" value="bakje" style="edgeLabel;html=1;align=center;verticalAlign=middle;resizable=0;points=[];" parent="IIubhp3aX0ed0kJfjFSU-41" vertex="1" connectable="0">
          <mxGeometry x="-0.2928" y="4" relative="1" as="geometry">
            <mxPoint as="offset" />
          </mxGeometry>
        </mxCell>
        <mxCell id="IIubhp3aX0ed0kJfjFSU-42" style="edgeStyle=orthogonalEdgeStyle;rounded=0;orthogonalLoop=1;jettySize=auto;html=1;exitX=0.5;exitY=1;exitDx=0;exitDy=0;entryX=0;entryY=0.5;entryDx=0;entryDy=0;" parent="1" source="IIubhp3aX0ed0kJfjFSU-39" target="IIubhp3aX0ed0kJfjFSU-16" edge="1">
          <mxGeometry relative="1" as="geometry" />
        </mxCell>
        <mxCell id="IIubhp3aX0ed0kJfjFSU-43" value="hoorntje" style="edgeLabel;html=1;align=center;verticalAlign=middle;resizable=0;points=[];" parent="IIubhp3aX0ed0kJfjFSU-42" vertex="1" connectable="0">
          <mxGeometry x="-0.0332" y="2" relative="1" as="geometry">
            <mxPoint as="offset" />
          </mxGeometry>
        </mxCell>
        <mxCell id="IIubhp3aX0ed0kJfjFSU-53" style="edgeStyle=orthogonalEdgeStyle;rounded=0;orthogonalLoop=1;jettySize=auto;html=1;exitX=0;exitY=0.5;exitDx=0;exitDy=0;" parent="1" source="IIubhp3aX0ed0kJfjFSU-39" edge="1">
          <mxGeometry relative="1" as="geometry">
            <mxPoint x="50" y="579.7777777777778" as="targetPoint" />
          </mxGeometry>
        </mxCell>
        <mxCell id="IIubhp3aX0ed0kJfjFSU-56" value="else" style="edgeLabel;html=1;align=center;verticalAlign=middle;resizable=0;points=[];" parent="IIubhp3aX0ed0kJfjFSU-53" vertex="1" connectable="0">
          <mxGeometry x="-0.2235" y="2" relative="1" as="geometry">
            <mxPoint x="1" as="offset" />
          </mxGeometry>
        </mxCell>
        <mxCell id="IIubhp3aX0ed0kJfjFSU-39" value="if hoorntje of bakje" style="rhombus;whiteSpace=wrap;html=1;" parent="1" vertex="1">
          <mxGeometry x="100" y="540" width="80" height="80" as="geometry" />
        </mxCell>
        <mxCell id="IIubhp3aX0ed0kJfjFSU-59" style="edgeStyle=orthogonalEdgeStyle;rounded=0;orthogonalLoop=1;jettySize=auto;html=1;exitX=0.5;exitY=1;exitDx=0;exitDy=0;" parent="1" source="IIubhp3aX0ed0kJfjFSU-46" target="IIubhp3aX0ed0kJfjFSU-60" edge="1">
          <mxGeometry relative="1" as="geometry">
            <mxPoint x="377.2962962962961" y="1040" as="targetPoint" />
          </mxGeometry>
        </mxCell>
        <mxCell id="IIubhp3aX0ed0kJfjFSU-46" value="toppings = input()" style="shape=parallelogram;perimeter=parallelogramPerimeter;whiteSpace=wrap;html=1;fixedSize=1;" parent="1" vertex="1">
          <mxGeometry x="317" y="920" width="120" height="60" as="geometry" />
        </mxCell>
        <mxCell id="IIubhp3aX0ed0kJfjFSU-51" style="edgeStyle=orthogonalEdgeStyle;rounded=0;orthogonalLoop=1;jettySize=auto;html=1;exitX=0.5;exitY=0;exitDx=0;exitDy=0;entryX=1;entryY=0.75;entryDx=0;entryDy=0;" parent="1" source="IIubhp3aX0ed0kJfjFSU-50" target="IIubhp3aX0ed0kJfjFSU-16" edge="1">
          <mxGeometry relative="1" as="geometry">
            <Array as="points">
              <mxPoint x="590" y="660" />
              <mxPoint x="463" y="660" />
            </Array>
          </mxGeometry>
        </mxCell>
        <mxCell id="IIubhp3aX0ed0kJfjFSU-50" value="&#39;Sorry dat is geen optie die we aanbieden&#39;" style="rounded=0;whiteSpace=wrap;html=1;" parent="1" vertex="1">
          <mxGeometry x="530" y="750" width="120" height="60" as="geometry" />
        </mxCell>
        <mxCell id="IIubhp3aX0ed0kJfjFSU-57" style="edgeStyle=orthogonalEdgeStyle;rounded=0;orthogonalLoop=1;jettySize=auto;html=1;exitX=0.5;exitY=0;exitDx=0;exitDy=0;entryX=0.25;entryY=0;entryDx=0;entryDy=0;" parent="1" source="IIubhp3aX0ed0kJfjFSU-54" target="IIubhp3aX0ed0kJfjFSU-38" edge="1">
          <mxGeometry relative="1" as="geometry" />
        </mxCell>
        <mxCell id="IIubhp3aX0ed0kJfjFSU-54" value="&#39;Sorry dat is geen optie die we aanbieden&#39;" style="rounded=0;whiteSpace=wrap;html=1;" parent="1" vertex="1">
          <mxGeometry x="-70" y="550" width="120" height="60" as="geometry" />
        </mxCell>
        <mxCell id="IIubhp3aX0ed0kJfjFSU-61" style="edgeStyle=orthogonalEdgeStyle;rounded=0;orthogonalLoop=1;jettySize=auto;html=1;exitX=0;exitY=0.5;exitDx=0;exitDy=0;entryX=0;entryY=0.5;entryDx=0;entryDy=0;" parent="1" source="IIubhp3aX0ed0kJfjFSU-60" target="IIubhp3aX0ed0kJfjFSU-74" edge="1">
          <mxGeometry relative="1" as="geometry">
            <mxPoint x="260" y="1200" as="targetPoint" />
            <Array as="points">
              <mxPoint x="260" y="1060" />
              <mxPoint x="260" y="1270" />
            </Array>
          </mxGeometry>
        </mxCell>
        <mxCell id="IIubhp3aX0ed0kJfjFSU-67" value="slagroom" style="edgeLabel;html=1;align=center;verticalAlign=middle;resizable=0;points=[];" parent="IIubhp3aX0ed0kJfjFSU-61" vertex="1" connectable="0">
          <mxGeometry x="-0.6026" y="1" relative="1" as="geometry">
            <mxPoint x="-13" y="89" as="offset" />
          </mxGeometry>
        </mxCell>
        <mxCell id="IIubhp3aX0ed0kJfjFSU-62" style="edgeStyle=orthogonalEdgeStyle;rounded=0;orthogonalLoop=1;jettySize=auto;html=1;exitX=0.646;exitY=0.168;exitDx=0;exitDy=0;exitPerimeter=0;entryX=0;entryY=0.5;entryDx=0;entryDy=0;" parent="1" source="IIubhp3aX0ed0kJfjFSU-60" target="IIubhp3aX0ed0kJfjFSU-65" edge="1">
          <mxGeometry relative="1" as="geometry">
            <mxPoint x="500" y="1060" as="targetPoint" />
          </mxGeometry>
        </mxCell>
        <mxCell id="IIubhp3aX0ed0kJfjFSU-64" value="else" style="edgeLabel;html=1;align=center;verticalAlign=middle;resizable=0;points=[];" parent="IIubhp3aX0ed0kJfjFSU-62" vertex="1" connectable="0">
          <mxGeometry x="-0.1447" y="1" relative="1" as="geometry">
            <mxPoint as="offset" />
          </mxGeometry>
        </mxCell>
        <mxCell id="IIubhp3aX0ed0kJfjFSU-69" style="edgeStyle=orthogonalEdgeStyle;rounded=0;orthogonalLoop=1;jettySize=auto;html=1;exitX=1;exitY=1;exitDx=0;exitDy=0;entryX=0.709;entryY=0.004;entryDx=0;entryDy=0;entryPerimeter=0;" parent="1" source="IIubhp3aX0ed0kJfjFSU-60" target="IIubhp3aX0ed0kJfjFSU-74" edge="1">
          <mxGeometry relative="1" as="geometry">
            <mxPoint x="440" y="1200" as="targetPoint" />
            <Array as="points">
              <mxPoint x="440" y="1080" />
              <mxPoint x="440" y="1230" />
              <mxPoint x="405" y="1230" />
            </Array>
          </mxGeometry>
        </mxCell>
        <mxCell id="IIubhp3aX0ed0kJfjFSU-70" value="caramel saus" style="edgeLabel;html=1;align=center;verticalAlign=middle;resizable=0;points=[];" parent="IIubhp3aX0ed0kJfjFSU-69" vertex="1" connectable="0">
          <mxGeometry x="0.0568" relative="1" as="geometry">
            <mxPoint as="offset" />
          </mxGeometry>
        </mxCell>
        <mxCell id="IIubhp3aX0ed0kJfjFSU-72" style="edgeStyle=orthogonalEdgeStyle;rounded=0;orthogonalLoop=1;jettySize=auto;html=1;exitX=0;exitY=1;exitDx=0;exitDy=0;entryX=0.25;entryY=0;entryDx=0;entryDy=0;" parent="1" source="IIubhp3aX0ed0kJfjFSU-60" target="IIubhp3aX0ed0kJfjFSU-74" edge="1">
          <mxGeometry relative="1" as="geometry">
            <mxPoint x="310" y="1200" as="targetPoint" />
            <Array as="points">
              <mxPoint x="320" y="1080" />
              <mxPoint x="320" y="1230" />
              <mxPoint x="350" y="1230" />
            </Array>
          </mxGeometry>
        </mxCell>
        <mxCell id="IIubhp3aX0ed0kJfjFSU-73" value="sprinkels" style="edgeLabel;html=1;align=center;verticalAlign=middle;resizable=0;points=[];" parent="IIubhp3aX0ed0kJfjFSU-72" vertex="1" connectable="0">
          <mxGeometry x="0.1889" y="1" relative="1" as="geometry">
            <mxPoint as="offset" />
          </mxGeometry>
        </mxCell>
        <mxCell id="IIubhp3aX0ed0kJfjFSU-75" style="edgeStyle=orthogonalEdgeStyle;rounded=0;orthogonalLoop=1;jettySize=auto;html=1;exitX=1;exitY=0.5;exitDx=0;exitDy=0;entryX=1;entryY=0.5;entryDx=0;entryDy=0;" parent="1" source="IIubhp3aX0ed0kJfjFSU-60" target="IIubhp3aX0ed0kJfjFSU-74" edge="1">
          <mxGeometry relative="1" as="geometry">
            <mxPoint x="500" y="1200" as="targetPoint" />
            <Array as="points">
              <mxPoint x="500" y="1060" />
              <mxPoint x="500" y="1270" />
            </Array>
          </mxGeometry>
        </mxCell>
        <mxCell id="IIubhp3aX0ed0kJfjFSU-76" value="geen" style="edgeLabel;html=1;align=center;verticalAlign=middle;resizable=0;points=[];" parent="IIubhp3aX0ed0kJfjFSU-75" vertex="1" connectable="0">
          <mxGeometry x="0.1232" y="1" relative="1" as="geometry">
            <mxPoint as="offset" />
          </mxGeometry>
        </mxCell>
        <mxCell id="IIubhp3aX0ed0kJfjFSU-60" value="if toppings" style="rhombus;whiteSpace=wrap;html=1;" parent="1" vertex="1">
          <mxGeometry x="336.99629629629607" y="1020" width="80" height="80" as="geometry" />
        </mxCell>
        <mxCell id="IIubhp3aX0ed0kJfjFSU-66" style="edgeStyle=orthogonalEdgeStyle;rounded=0;orthogonalLoop=1;jettySize=auto;html=1;entryX=1;entryY=0.75;entryDx=0;entryDy=0;" parent="1" source="IIubhp3aX0ed0kJfjFSU-65" target="IIubhp3aX0ed0kJfjFSU-46" edge="1">
          <mxGeometry relative="1" as="geometry">
            <Array as="points">
              <mxPoint x="560" y="961" />
            </Array>
          </mxGeometry>
        </mxCell>
        <mxCell id="IIubhp3aX0ed0kJfjFSU-65" value="&#39;Sorry dat is geen optie die we aanbieden&#39;" style="rounded=0;whiteSpace=wrap;html=1;" parent="1" vertex="1">
          <mxGeometry x="500" y="990" width="120" height="60" as="geometry" />
        </mxCell>
        <mxCell id="IIubhp3aX0ed0kJfjFSU-74" value="print(bonnetje)" style="rounded=0;whiteSpace=wrap;html=1;" parent="1" vertex="1">
          <mxGeometry x="320" y="1240" width="120" height="60" as="geometry" />
        </mxCell>
        <mxCell id="hMu0bNvZ6zIXJzxg3Q64-3" value="" style="edgeStyle=orthogonalEdgeStyle;rounded=0;orthogonalLoop=1;jettySize=auto;html=1;" edge="1" parent="1" source="hMu0bNvZ6zIXJzxg3Q64-1" target="hMu0bNvZ6zIXJzxg3Q64-2">
          <mxGeometry relative="1" as="geometry" />
        </mxCell>
        <mxCell id="hMu0bNvZ6zIXJzxg3Q64-1" value="particulier_of_zakelijk = int(input" style="shape=parallelogram;perimeter=parallelogramPerimeter;whiteSpace=wrap;html=1;fixedSize=1;" vertex="1" parent="1">
          <mxGeometry x="293" y="-70" width="170" height="80" as="geometry" />
        </mxCell>
        <mxCell id="hMu0bNvZ6zIXJzxg3Q64-4" value="" style="edgeStyle=orthogonalEdgeStyle;rounded=0;orthogonalLoop=1;jettySize=auto;html=1;" edge="1" parent="1" source="hMu0bNvZ6zIXJzxg3Q64-2" target="IIubhp3aX0ed0kJfjFSU-2">
          <mxGeometry relative="1" as="geometry" />
        </mxCell>
        <mxCell id="hMu0bNvZ6zIXJzxg3Q64-5" value="particulier" style="edgeLabel;html=1;align=center;verticalAlign=middle;resizable=0;points=[];" vertex="1" connectable="0" parent="hMu0bNvZ6zIXJzxg3Q64-4">
          <mxGeometry x="-0.5847" y="-2" relative="1" as="geometry">
            <mxPoint as="offset" />
          </mxGeometry>
        </mxCell>
        <mxCell id="hMu0bNvZ6zIXJzxg3Q64-7" style="edgeStyle=orthogonalEdgeStyle;rounded=0;orthogonalLoop=1;jettySize=auto;html=1;exitX=0;exitY=0.5;exitDx=0;exitDy=0;" edge="1" parent="1" source="hMu0bNvZ6zIXJzxg3Q64-2">
          <mxGeometry relative="1" as="geometry">
            <mxPoint x="-380" y="270" as="targetPoint" />
            <Array as="points">
              <mxPoint x="190" y="100" />
              <mxPoint x="190" y="200" />
              <mxPoint x="-379" y="200" />
              <mxPoint x="-379" y="270" />
            </Array>
          </mxGeometry>
        </mxCell>
        <mxCell id="hMu0bNvZ6zIXJzxg3Q64-8" value="zakelijk" style="edgeLabel;html=1;align=center;verticalAlign=middle;resizable=0;points=[];" vertex="1" connectable="0" parent="hMu0bNvZ6zIXJzxg3Q64-7">
          <mxGeometry x="-0.1539" y="-4" relative="1" as="geometry">
            <mxPoint x="-56" y="4" as="offset" />
          </mxGeometry>
        </mxCell>
        <mxCell id="hMu0bNvZ6zIXJzxg3Q64-10" style="edgeStyle=orthogonalEdgeStyle;rounded=0;orthogonalLoop=1;jettySize=auto;html=1;exitX=1;exitY=0.5;exitDx=0;exitDy=0;entryX=1;entryY=0.5;entryDx=0;entryDy=0;" edge="1" parent="1" source="hMu0bNvZ6zIXJzxg3Q64-2" target="hMu0bNvZ6zIXJzxg3Q64-1">
          <mxGeometry relative="1" as="geometry">
            <Array as="points">
              <mxPoint x="483" y="100" />
              <mxPoint x="483" y="-30" />
            </Array>
          </mxGeometry>
        </mxCell>
        <mxCell id="hMu0bNvZ6zIXJzxg3Q64-11" value="else" style="edgeLabel;html=1;align=center;verticalAlign=middle;resizable=0;points=[];" vertex="1" connectable="0" parent="hMu0bNvZ6zIXJzxg3Q64-10">
          <mxGeometry x="0.0373" y="1" relative="1" as="geometry">
            <mxPoint as="offset" />
          </mxGeometry>
        </mxCell>
        <mxCell id="hMu0bNvZ6zIXJzxg3Q64-2" value="if particulier_of_zakelijk" style="rhombus;whiteSpace=wrap;html=1;" vertex="1" parent="1">
          <mxGeometry x="293" y="60" width="170" height="80" as="geometry" />
        </mxCell>
        <mxCell id="hMu0bNvZ6zIXJzxg3Q64-12" style="edgeStyle=orthogonalEdgeStyle;rounded=0;orthogonalLoop=1;jettySize=auto;html=1;exitX=0.5;exitY=1;exitDx=0;exitDy=0;" edge="1" parent="1" source="hMu0bNvZ6zIXJzxg3Q64-9">
          <mxGeometry relative="1" as="geometry">
            <mxPoint x="-374.8421052631579" y="450" as="targetPoint" />
          </mxGeometry>
        </mxCell>
        <mxCell id="hMu0bNvZ6zIXJzxg3Q64-9" value="Hoeveel_liter = int(input())" style="shape=parallelogram;perimeter=parallelogramPerimeter;whiteSpace=wrap;html=1;fixedSize=1;" vertex="1" parent="1">
          <mxGeometry x="-460" y="270" width="170" height="80" as="geometry" />
        </mxCell>
        <mxCell id="hMu0bNvZ6zIXJzxg3Q64-27" value="" style="edgeStyle=orthogonalEdgeStyle;rounded=0;orthogonalLoop=1;jettySize=auto;html=1;" edge="1" parent="1" source="hMu0bNvZ6zIXJzxg3Q64-13" target="hMu0bNvZ6zIXJzxg3Q64-24">
          <mxGeometry relative="1" as="geometry" />
        </mxCell>
        <mxCell id="hMu0bNvZ6zIXJzxg3Q64-33" style="edgeStyle=orthogonalEdgeStyle;rounded=0;orthogonalLoop=1;jettySize=auto;html=1;exitX=0;exitY=0;exitDx=0;exitDy=0;" edge="1" parent="1" source="hMu0bNvZ6zIXJzxg3Q64-13">
          <mxGeometry relative="1" as="geometry">
            <mxPoint x="-470" y="530" as="targetPoint" />
            <Array as="points">
              <mxPoint x="-560" y="457" />
              <mxPoint x="-560" y="530" />
            </Array>
          </mxGeometry>
        </mxCell>
        <mxCell id="hMu0bNvZ6zIXJzxg3Q64-34" value="herhaal voor elke smaak" style="edgeLabel;html=1;align=center;verticalAlign=middle;resizable=0;points=[];" vertex="1" connectable="0" parent="hMu0bNvZ6zIXJzxg3Q64-33">
          <mxGeometry x="-0.0653" y="-1" relative="1" as="geometry">
            <mxPoint y="12" as="offset" />
          </mxGeometry>
        </mxCell>
        <mxCell id="hMu0bNvZ6zIXJzxg3Q64-13" value="&lt;div&gt;welke smaak wilt u = input()&lt;/div&gt;" style="shape=parallelogram;perimeter=parallelogramPerimeter;whiteSpace=wrap;html=1;fixedSize=1;strokeColor=#000000;" vertex="1" parent="1">
          <mxGeometry x="-475" y="450" width="200" height="80" as="geometry" />
        </mxCell>
        <mxCell id="hMu0bNvZ6zIXJzxg3Q64-14" style="edgeStyle=orthogonalEdgeStyle;rounded=0;orthogonalLoop=1;jettySize=auto;html=1;exitX=1;exitY=0.5;exitDx=0;exitDy=0;entryX=1;entryY=0.5;entryDx=0;entryDy=0;" edge="1" parent="1" source="hMu0bNvZ6zIXJzxg3Q64-24" target="hMu0bNvZ6zIXJzxg3Q64-25">
          <mxGeometry relative="1" as="geometry">
            <mxPoint x="-280" y="720" as="targetPoint" />
            <Array as="points">
              <mxPoint x="-260" y="600" />
              <mxPoint x="-260" y="750" />
            </Array>
          </mxGeometry>
        </mxCell>
        <mxCell id="hMu0bNvZ6zIXJzxg3Q64-15" value="aardbij" style="edgeLabel;html=1;align=center;verticalAlign=middle;resizable=0;points=[];" vertex="1" connectable="0" parent="hMu0bNvZ6zIXJzxg3Q64-14">
          <mxGeometry x="0.2727" y="1" relative="1" as="geometry">
            <mxPoint as="offset" />
          </mxGeometry>
        </mxCell>
        <mxCell id="hMu0bNvZ6zIXJzxg3Q64-16" style="edgeStyle=orthogonalEdgeStyle;rounded=0;orthogonalLoop=1;jettySize=auto;html=1;exitX=0;exitY=0.5;exitDx=0;exitDy=0;entryX=0;entryY=0.5;entryDx=0;entryDy=0;" edge="1" parent="1" source="hMu0bNvZ6zIXJzxg3Q64-24" target="hMu0bNvZ6zIXJzxg3Q64-25">
          <mxGeometry relative="1" as="geometry">
            <mxPoint x="-480" y="720" as="targetPoint" />
            <Array as="points">
              <mxPoint x="-500" y="600" />
              <mxPoint x="-500" y="750" />
            </Array>
          </mxGeometry>
        </mxCell>
        <mxCell id="hMu0bNvZ6zIXJzxg3Q64-17" value="vanille" style="edgeLabel;html=1;align=center;verticalAlign=middle;resizable=0;points=[];" vertex="1" connectable="0" parent="hMu0bNvZ6zIXJzxg3Q64-16">
          <mxGeometry x="0.3423" y="2" relative="1" as="geometry">
            <mxPoint as="offset" />
          </mxGeometry>
        </mxCell>
        <mxCell id="hMu0bNvZ6zIXJzxg3Q64-20" style="edgeStyle=orthogonalEdgeStyle;rounded=0;orthogonalLoop=1;jettySize=auto;html=1;exitX=0;exitY=1;exitDx=0;exitDy=0;entryX=0.414;entryY=-0.004;entryDx=0;entryDy=0;entryPerimeter=0;" edge="1" parent="1" source="hMu0bNvZ6zIXJzxg3Q64-24" target="hMu0bNvZ6zIXJzxg3Q64-25">
          <mxGeometry relative="1" as="geometry">
            <mxPoint x="-403" y="720" as="targetPoint" />
          </mxGeometry>
        </mxCell>
        <mxCell id="hMu0bNvZ6zIXJzxg3Q64-21" value="chocola" style="edgeLabel;html=1;align=center;verticalAlign=middle;resizable=0;points=[];" vertex="1" connectable="0" parent="hMu0bNvZ6zIXJzxg3Q64-20">
          <mxGeometry x="-0.1335" y="-2" relative="1" as="geometry">
            <mxPoint y="-10" as="offset" />
          </mxGeometry>
        </mxCell>
        <mxCell id="hMu0bNvZ6zIXJzxg3Q64-22" style="edgeStyle=orthogonalEdgeStyle;rounded=0;orthogonalLoop=1;jettySize=auto;html=1;exitX=1;exitY=0;exitDx=0;exitDy=0;entryX=0;entryY=0.5;entryDx=0;entryDy=0;" edge="1" parent="1" source="hMu0bNvZ6zIXJzxg3Q64-24" target="hMu0bNvZ6zIXJzxg3Q64-26">
          <mxGeometry relative="1" as="geometry">
            <mxPoint x="-260" y="579.7777777777778" as="targetPoint" />
          </mxGeometry>
        </mxCell>
        <mxCell id="hMu0bNvZ6zIXJzxg3Q64-23" value="else" style="edgeLabel;html=1;align=center;verticalAlign=middle;resizable=0;points=[];" vertex="1" connectable="0" parent="hMu0bNvZ6zIXJzxg3Q64-22">
          <mxGeometry x="-0.0665" y="1" relative="1" as="geometry">
            <mxPoint x="8" as="offset" />
          </mxGeometry>
        </mxCell>
        <mxCell id="hMu0bNvZ6zIXJzxg3Q64-31" style="edgeStyle=orthogonalEdgeStyle;rounded=0;orthogonalLoop=1;jettySize=auto;html=1;exitX=1;exitY=1;exitDx=0;exitDy=0;entryX=0.75;entryY=0;entryDx=0;entryDy=0;" edge="1" parent="1" source="hMu0bNvZ6zIXJzxg3Q64-24" target="hMu0bNvZ6zIXJzxg3Q64-25">
          <mxGeometry relative="1" as="geometry" />
        </mxCell>
        <mxCell id="hMu0bNvZ6zIXJzxg3Q64-32" value="munt" style="edgeLabel;html=1;align=center;verticalAlign=middle;resizable=0;points=[];" vertex="1" connectable="0" parent="hMu0bNvZ6zIXJzxg3Q64-31">
          <mxGeometry x="0.2197" y="1" relative="1" as="geometry">
            <mxPoint as="offset" />
          </mxGeometry>
        </mxCell>
        <mxCell id="hMu0bNvZ6zIXJzxg3Q64-24" value="if smaken" style="rhombus;whiteSpace=wrap;html=1;" vertex="1" parent="1">
          <mxGeometry x="-413" y="560" width="80" height="80" as="geometry" />
        </mxCell>
        <mxCell id="hMu0bNvZ6zIXJzxg3Q64-25" value="print(bonnetje)" style="shape=parallelogram;perimeter=parallelogramPerimeter;whiteSpace=wrap;html=1;fixedSize=1;" vertex="1" parent="1">
          <mxGeometry x="-443" y="730" width="120" height="60" as="geometry" />
        </mxCell>
        <mxCell id="hMu0bNvZ6zIXJzxg3Q64-28" style="edgeStyle=orthogonalEdgeStyle;rounded=0;orthogonalLoop=1;jettySize=auto;html=1;exitX=0.5;exitY=0;exitDx=0;exitDy=0;entryX=1;entryY=0.5;entryDx=0;entryDy=0;" edge="1" parent="1" source="hMu0bNvZ6zIXJzxg3Q64-26" target="hMu0bNvZ6zIXJzxg3Q64-13">
          <mxGeometry relative="1" as="geometry">
            <Array as="points">
              <mxPoint x="-170" y="490" />
            </Array>
          </mxGeometry>
        </mxCell>
        <mxCell id="hMu0bNvZ6zIXJzxg3Q64-26" value="&#39;Sorry dat is geen optie die we aanbieden&#39;" style="rounded=0;whiteSpace=wrap;html=1;" vertex="1" parent="1">
          <mxGeometry x="-230" y="550" width="120" height="60" as="geometry" />
        </mxCell>
        <mxCell id="hMu0bNvZ6zIXJzxg3Q64-29" style="edgeStyle=orthogonalEdgeStyle;rounded=0;orthogonalLoop=1;jettySize=auto;html=1;exitX=0;exitY=0;exitDx=0;exitDy=0;" edge="1" parent="1" source="IIubhp3aX0ed0kJfjFSU-2" target="IIubhp3aX0ed0kJfjFSU-2">
          <mxGeometry relative="1" as="geometry" />
        </mxCell>
      </root>
    </mxGraphModel>
  </diagram>
</mxfile>
